<svg xmlns="http://www.w3.org/2000/svg" viewBox="0 0 128 128"><path fill="#092E20" d="M90.9 61.7c0-8.5-3.3-11.7-11-11.7-3.7 0-6.6.8-8.7 1.7v33.1c2.1.8 4.6 1.1 8 1.1 7.8.1 11.7-3.9 11.7-12.4v-11.8zm15.8.2c0 17.6-9.4 26.8-27.3 26.8-5.1 0-9.4-.6-13-1.7V30.5h15.8V49c2.3-1.1 5.6-1.8 9.4-1.8 13.4 0 15.1 10.2 15.1 13.7v1zM47.1 64.5c-.3 8.5-3.4 12.8-11 12.8-.5 0-1.1 0-1.6-.1V52.2c.5 0 1.1-.1 1.8-.1 7.4 0 10.6 4.3 10.8 12.4zm15.8-12.1c0-14.5-7.3-22.1-21.8-22.1-4.8 0-9.1.5-13.1 1.4v76.5h15.8V87.3c1.1.1 2.3.1 3.4.1 15.4 0 23.9-8.7 23.9-26.4v-8.6z"/></svg>
