<svg role="img" viewBox="0 0 24 24" xmlns="http://www.w3.org/2000/svg"><title>Expo</title><path fill="#000020" d="M0 20.085c0-.568.341-1.081.863-1.301l11.203-4.718c.377-.159.806-.159 1.183 0l11.203 4.718c.522.22.863.733.863 1.301 0 .568-.341 1.081-.863 1.301L13.249 25.9c-.377.159-.806.159-1.183 0L.863 21.386C.341 21.166 0 20.653 0 20.085zm.863-3.618c-.522.22-.863.733-.863 1.301v.568l11.203 4.718c.377.159.806.159 1.183 0L23.589 18.336v-.568c0-.568-.341-1.081-.863-1.301L11.524 11.75c-.377-.159-.806-.159-1.183 0L.863 16.467zM12 0c1.072 0 2.144.428 2.936 1.285l7.13 7.688c.431.464.645 1.072.645 1.68 0 .608-.214 1.216-.645 1.68l-7.13 7.688c-.792.857-1.864 1.285-2.936 1.285s-2.144-.428-2.936-1.285L2.934 12.333c-.431-.464-.645-1.072-.645-1.68 0-.608.214-1.216.645-1.68l7.13-7.688C9.856.428 10.928 0 12 0zm0 3.617c-.285 0-.57.114-.782.343L4.71 10.653c-.212.228-.318.536-.318.844 0 .308.106.616.318.844l6.508 6.693c.212.229.497.343.782.343s.57-.114.782-.343l6.508-6.693c.212-.228.318-.536.318-.844 0-.308-.106-.616-.318-.844L12.782 3.96c-.212-.229-.497-.343-.782-.343z"/></svg>
