<svg role="img" viewBox="0 0 24 24" xmlns="http://www.w3.org/2000/svg"><title>Apache Kafka</title><path fill="#231F20" d="M12 0C5.372 0 0 5.372 0 12s5.372 12 12 12 12-5.372 12-12S18.628 0 12 0zm4.655 5.663c1.393 0 2.523 1.13 2.523 2.523s-1.13 2.524-2.523 2.524c-.756 0-1.437-.335-1.905-.862l-3.688 2.225c.128.408.198.841.198 1.29s-.07.883-.198 1.29l3.688 2.226c.468-.527 1.149-.862 1.905-.862 1.393 0 2.523 1.13 2.523 2.523S18.048 20.864 16.655 20.864c-1.393 0-2.524-1.13-2.524-2.523 0-.217.028-.428.08-.63l-3.652-2.201c-.6.76-1.52 1.246-2.559 1.246-1.393 0-2.523-1.13-2.523-2.523s1.13-2.523 2.523-2.523c1.039 0 1.959.486 2.559 1.246l3.652-2.201c-.052-.202-.08-.413-.08-.63 0-1.393 1.13-2.523 2.524-2.523z"/></svg>
