<svg role="img" viewBox="0 0 24 24" xmlns="http://www.w3.org/2000/svg"><title>LangChain</title><path fill="#1C3C3C" d="M21.693 8.6425c-.6372-.6755-1.5467-.9519-2.7104-.9519h-.7674v2.412h.8829c1.4313 0 1.7387-.6141 1.7387-1.2603 0-.4917-.2461-.8755-.654-1.1998zm-3.4778 3.0866H16.23V5.6H19.3c2.1104 0 4.2206 1.1388 4.2206 3.0866 0 1.1388-1.0388 2.524-2.4394 2.7072l2.5241 4.3093h-2.7104l-2.4086-4.0186h-.2461zm-3.0165-6.0285h2.163v10.1588h-2.163Zm-2.7104 8.1095c-.7366 0-1.2004-.6755-1.2004-1.5054V5.5693h-2.1629v6.8014c0 1.9478 1.0388 3.4226 3.2645 3.5765 1.4313.0922 2.6258-.5832 3.1203-1.8145l-1.7695-.9826c-.2769.5526-.7674.9519-1.2519.9519zM.7313 6.4607h2.0474v6.924h4.4512v1.8453H.7313V6.4607z"/></svg>
