<svg xmlns="http://www.w3.org/2000/svg" viewBox="0 0 128 128"><defs><linearGradient id="a" x1="64" x2="64" y1="-.001" y2="127.999" gradientUnits="userSpaceOnUse"><stop offset="0" stop-color="#ffffff"/><stop offset="1" stop-color="#000000"/></linearGradient></defs><path fill="url(#a)" d="M65.2 127.9c-.8 0-1.5-.2-2.2-.6l-46.2-27c-1.9-1.1-2.7-3.6-1.8-5.6l36.5-77.1c.4-.9 1.2-1.5 2.1-1.8.9-.3 1.9-.2 2.7.2l46.2 27c1.2.7 2 2.1 2 3.5l-1.1 78.3c-.1 1.4-.8 2.6-2 3.2l-34 19.4c-.7.3-1.5.5-2.2.5zM19.7 94.3l44.1 25.8 32.5-18.6 1.1-74.8-44.1-25.7L19.7 94.3z"/><path fill="url(#a)" d="M66.3 101.9l-.3-.2L52.4 94c-.5-.3-.7-.9-.6-1.5l6.4-48.3c.1-.5.5-.9 1-.1.5-.1 1 .1 1.3.5l27.5 44c.3.5.3 1.1 0 1.6-.3.5-.8.8-1.4.8l-19.6.5c-.1 0-.3-.1-.5-.2l-12.8-7.5c-.4-.2-.6-.6-.6-1.1l-2.5-18.8c-.1-.4.2-.7.6-.8.4-.1.7.2.8.6l2.4 18.1 12.3 7.2 18.1-.4-25.5-40.8-6.1 46.1L64 99.5c-.7-.4-1.4-.6-2.2-.6-.4 0-.8.1-1.1.2-.8.3-1.4.9-1.7 1.7-.3.8-.3 1.6 0 2.4.3.8.9 1.4 1.7 1.7.8.3 1.6.3 2.4 0 .8-.3 1.4-.9 1.7-1.7.1-.2.1-.5.2-.7l-.7 1z"/></svg>
