<svg role="img" viewBox="0 0 24 24" xmlns="http://www.w3.org/2000/svg"><title>RabbitMQ</title><path fill="#FF6600" d="M23.035 9.601h-7.677a.956.956 0 01-.962-.962V.962a.956.956 0 00-.962-.956H10.56a.956.956 0 00-.962.956V8.64a.956.956 0 01-.962.962H5.762a.956.956 0 01-.961-.962V.962A.956.956 0 003.839 0H.959a.956.956 0 00-.956.956v22.088c0 .53.43.956.956.956h22.076c.53 0 .956-.43.956-.956V10.58a.956.956 0 00-.956-.98zm-3.368 8.705h-1.874c-.515 0-.93-.415-.93-.93v-1.874c0-.515.415-.93.93-.93h1.874c.515 0 .93.415.93.93v1.874a.93.93 0 01-.93.93z"/></svg>
