<svg xmlns="http://www.w3.org/2000/svg" viewBox="0 0 128 128"><path fill="#A41E11" d="M121.8 93.1c-8.4 3.5-51.8 21.4-59.7 24.7-7.9 3.3-13.3 3.7-19.8 1.4C36.8 117 13.4 107.1 6.2 104c-2.7-1.2-4.2-2.5-4.2-3.8V84.5c0 1.3 1.5 2.6 4.2 3.8 7.2 3.1 30.6 13 36.1 15.3 6.5 2.6 11.9 2.2 19.8-1.1 7.9-3.3 51.3-21.2 59.7-24.7 3.6-1.5 6-2.8 6-4.3 0 1.5-2.4 2.8-6 4.3v16.3c0 1.3 0 2.6-6 5z"/><path fill="#D82C20" d="M121.8 75.8c-8.4 3.5-51.8 21.4-59.7 24.7-7.9 3.3-13.3 3.7-19.8 1.4-5.5-2.3-28.9-12.2-36.1-15.3-2.7-1.2-4.2-2.5-4.2-3.8V67.1c0 1.3 1.5 2.6 4.2 3.8 7.2 3.1 30.6 13 36.1 15.3 6.5 2.6 11.9 2.2 19.8-1.1 7.9-3.3 51.3-21.2 59.7-24.7 3.6-1.5 6-2.8 6-4.3 0 1.5-2.4 2.8-6 4.3v16.3c0 1.3 0 2.6-6 5z"/><path fill="#A41E11" d="M121.8 58.5c-8.4 3.5-51.8 21.4-59.7 24.7-7.9 3.3-13.3 3.7-19.8 1.4-5.5-2.3-28.9-12.2-36.1-15.3-2.7-1.2-4.2-2.5-4.2-3.8V49.8c0 1.3 1.5 2.6 4.2 3.8 7.2 3.1 30.6 13 36.1 15.3 6.5 2.6 11.9 2.2 19.8-1.1 7.9-3.3 51.3-21.2 59.7-24.7 3.6-1.5 6-2.8 6-4.3 0 1.5-2.4 2.8-6 4.3v16.3c0 1.3 0 2.6-6 5z"/><path fill="#D82C20" d="M121.8 41.3c-8.4 3.5-51.8 21.4-59.7 24.7-7.9 3.3-13.3 3.7-19.8 1.4-5.5-2.3-28.9-12.2-36.1-15.3-2.7-1.2-4.2-2.5-4.2-3.8V32.5c0 1.3 1.5 2.6 4.2 3.8 7.2 3.1 30.6 13 36.1 15.3 6.5 2.6 11.9 2.2 19.8-1.1 7.9-3.3 51.3-21.2 59.7-24.7 3.6-1.5 6-2.8 6-4.3 0 1.5-2.4 2.8-6 4.3v16.3c0 1.3 0 2.6-6 5z"/><path fill="#A41E11" d="M121.8 24c-8.4 3.5-51.8 21.4-59.7 24.7-7.9 3.3-13.3 3.7-19.8 1.4-5.5-2.3-28.9-12.2-36.1-15.3C3.5 33.6 2 32.3 2 31V15.3c0 1.3 1.5 2.6 4.2 3.8 7.2 3.1 30.6 13 36.1 15.3 6.5 2.6 11.9 2.2 19.8-1.1 7.9-3.3 51.3-21.2 59.7-24.7 3.6-1.5 6-2.8 6-4.3 0 1.5-2.4 2.8-6 4.3V24.7c0 1.3 0 2.6-6 5z"/><path fill="#D82C20" d="M121.8 6.7c-8.4 3.5-51.8 21.4-59.7 24.7-7.9 3.3-13.3 3.7-19.8 1.4-5.5-2.3-28.9-12.2-36.1-15.3C3.5 16.3 2 15 2 13.7s1.5-2.6 4.2-3.8c7.2-3.1 30.6-13 36.1-15.3 6.5-2.6 11.9-2.2 19.8 1.1 7.9 3.3 51.3 21.2 59.7 24.7 3.6 1.5 6 2.8 6 4.3 0-1.5-2.4-2.8-6-4z"/><path fill="#fff" d="M75.9 40.5c-2.7 1.1-5.6.2-7.8-1.4-2.2-1.6-3.7-4.1-4.2-6.8-.5-2.7.1-5.5 1.7-7.9 1.6-2.4 4-4.1 6.7-4.8l9.6 10.4c-1.4 1.5-3.2 2.6-5.1 3.5.7 1.1 1.7 1.9 2.9 2.5 1.2.6 2.5.8 3.8.6l1.2 4.8c-2.9.4-5.8-.1-8.4-1.4zm-6.7-13.6c-1.4 1.3-2.2 3.1-2.3 4.9-.1 1.8.5 3.6 1.7 5 .5.6 1.1 1.1 1.8 1.5l2.8-3.7c-.4-.3-.7-.6-.9-1-.4-.7-.6-1.5-.5-2.3.1-.8.4-1.5.9-2.1l-3.5-2.3z"/><path fill="#fff" d="M89.9 27.7l-2.6 3.5c-2.5-1.9-5.6-2.8-8.7-2.7l.4-5c4.1-.2 8.1 1.1 11.3 3.7zm-7.1 1.4l1.4-1.9c.9.7 2 1.2 3.2 1.5l-1.4 1.9c-1.1-.4-2.2-.9-3.2-1.5z"/><ellipse cx="94.9" cy="40.8" fill="#fff" rx="7.3" ry="7.7" transform="rotate(-67.7 94.9 40.8)"/><ellipse cx="94.9" cy="40.8" fill="#A41E11" rx="3.6" ry="3.8" transform="rotate(-67.7 94.9 40.8)"/><path fill="#fff" d="M99.6 39.9l.8-1.4c.5.3.9.6 1.4.8.5.2 1 .3 1.5.3.4 0 .7-.1 1-.3.2-.2.4-.5.3-.8 0-.2-.1-.3-.2-.5-.1-.1-.3-.3-.5-.4l-1.5-.6c-.5-.2-1-.4-1.4-.8-.4-.3-.7-.8-.7-1.3 0-.4.1-.7.3-1 .2-.3.4-.6.7-.8.3-.2.7-.4 1.1-.5.4-.1.8-.1 1.2-.1.5 0 1 .1 1.5.2.5.1 1 .3 1.4.6l-.7 1.3c-.4-.2-.8-.4-1.2-.5-.4-.1-.7-.2-1.1-.1-.4 0-.7.1-.9.3-.2.2-.3.4-.3.7 0 .2.1.3.2.5.1.1.3.3.5.4.2.1.5.2.7.3l.8.3c.5.2 1 .5 1.4.9.4.4.6.9.6 1.4 0 .4-.1.7-.3 1-.2.3-.4.6-.7.8-.3.2-.7.4-1.1.5-.4.1-.8.2-1.2.2-.6 0-1.2-.1-1.8-.3-.5-.2-1-.5-1.4-.8zm-11.7-6.1h1.8v7.7h-1.8v-7.7zm2.2 0h2.4c.5 0 1 .1 1.4.3.4.2.7.5 1 .8.3.3.5.7.6 1.1.1.4.2.8.2 1.3 0 .5-.1.9-.2 1.3-.1.4-.3.8-.6 1.1-.3.3-.6.6-1 .8-.4.2-.9.3-1.4.3h-2.4v-7zm1.8 1.3v4.4h.6c.6 0 1.1-.2 1.4-.6.3-.4.5-.9.5-1.5 0-.3 0-.5-.1-.8-.1-.3-.2-.5-.3-.7-.1-.2-.3-.4-.6-.5-.2-.1-.5-.2-.8-.2h-.7v-.1zm3.7-1.3h5.2v1.3h-3.4v1.9h3.1v1.3h-3.1v2h3.4v1.3h-5.2v-7.8z"/></svg>
